<svg width="16" height="16" viewBox="0 0 16 16" fill="none" xmlns="http://www.w3.org/2000/svg">
<path fill-rule="evenodd" clip-rule="evenodd" d="M5.174 3H10.826C11.194 3.00003 11.5492 3.13535 11.8239 3.38021C12.0987 3.62508 12.2738 3.9624 12.316 4.328L13.124 11.328C13.1482 11.5381 13.1278 11.7509 13.064 11.9526C13.0002 12.1542 12.8945 12.3401 12.7537 12.498C12.613 12.6558 12.4405 12.7822 12.2476 12.8687C12.0546 12.9552 11.8455 13 11.634 13H4.366C4.15451 13 3.94542 12.9552 3.75244 12.8687C3.55946 12.7822 3.38695 12.6558 3.24625 12.498C3.10554 12.3401 2.99982 12.1542 2.93601 11.9526C2.8722 11.7509 2.85175 11.5381 2.876 11.328L3.684 4.328C3.7262 3.9624 3.90133 3.62508 4.17607 3.38021C4.45081 3.13535 4.80598 3.00003 5.174 3ZM2.194 4.156C2.2784 3.42481 2.62866 2.75016 3.17814 2.26043C3.72761 1.77069 4.43795 1.50005 5.174 1.5H10.826C11.562 1.50005 12.2724 1.77069 12.8219 2.26043C13.3713 2.75016 13.7216 3.42481 13.806 4.156L14.614 11.156C14.6625 11.5762 14.6216 12.0019 14.494 12.4051C14.3664 12.8084 14.1549 13.1801 13.8735 13.4959C13.5921 13.8117 13.2471 14.0644 12.8611 14.2375C12.4752 14.4105 12.057 14.5 11.634 14.5H4.366C3.94302 14.5 3.52483 14.4105 3.13887 14.2375C2.75291 14.0644 2.40791 13.8117 2.1265 13.4959C1.84509 13.1801 1.63364 12.8084 1.50602 12.4051C1.3784 12.0019 1.3375 11.5762 1.386 11.156L2.194 4.156ZM5 5.25C5 5.05109 5.07902 4.86032 5.21967 4.71967C5.36032 4.57902 5.55109 4.5 5.75 4.5C5.94891 4.5 6.13968 4.57902 6.28033 4.71967C6.42098 4.86032 6.5 5.05109 6.5 5.25V5.5C6.5 5.89782 6.65803 6.27936 6.93934 6.56066C7.22064 6.84196 7.60217 7 8 7C8.39782 7 8.77935 6.84196 9.06066 6.56066C9.34196 6.27936 9.5 5.89782 9.5 5.5V5.25C9.5 5.05109 9.57902 4.86032 9.71967 4.71967C9.86032 4.57902 10.0511 4.5 10.25 4.5C10.4489 4.5 10.6397 4.57902 10.7803 4.71967C10.921 4.86032 11 5.05109 11 5.25V5.5C11 6.29565 10.6839 7.05871 10.1213 7.62132C9.55871 8.18393 8.79565 8.5 8 8.5C7.20435 8.5 6.44129 8.18393 5.87868 7.62132C5.31607 7.05871 5 6.29565 5 5.5V5.25Z" fill="black"/>
</svg>
