<svg width="242" height="237" viewBox="0 0 242 237" fill="none" xmlns="http://www.w3.org/2000/svg">
<path fill-rule="evenodd" clip-rule="evenodd" d="M125 236.304C70.876 236.304 27 192.136 27 137.652C27 83.168 70.876 39 125 39C179.124 39 223 83.168 223 137.652C223 192.136 179.124 236.304 125 236.304ZM125 229.258C175.258 229.258 216 188.245 216 137.652C216 87.0597 175.258 46.0466 125 46.0466C74.742 46.0466 34 87.0597 34 137.652C34 188.245 74.742 229.258 125 229.258Z" fill="black"/>
<path fill-rule="evenodd" clip-rule="evenodd" d="M49.163 103.922C53.357 93.8254 59.375 87.9566 61 86.2967C62.625 84.6377 64.932 85.447 66.477 86.2967C68.022 87.1473 106.75 126.196 108.479 128.157C110.208 130.118 112.039 133.044 107.078 133.044C102.117 133.044 53.37 132.615 49.163 132.323C44.955 132.03 43.713 129.56 43.713 127.45C43.713 125.34 44.968 114.02 49.163 103.922ZM96.015 60.482C106.074 56.3275 113.245 56.6003 115.56 56.5842C117.875 56.5681 118.937 58.7818 119.433 60.482C119.928 62.1833 120.288 117.695 120.133 120.312C119.977 122.929 120.02 125.831 116.512 122.299C113.004 118.766 78.835 83.7659 76.066 80.5648C73.296 77.3626 74.153 74.7312 75.636 73.2393C77.118 71.7475 85.955 64.6375 96.015 60.482ZM157.507 61.3105C167.537 65.5324 173.367 71.5904 175.016 73.2263C176.664 74.8621 175.86 77.1844 175.016 78.7397C174.171 80.295 135.38 119.281 133.432 121.021C131.484 122.762 128.578 124.605 128.578 119.611C128.578 114.617 129.004 65.5455 129.294 61.3105C129.585 57.0745 132.039 55.8242 134.135 55.8242C136.231 55.8242 147.476 57.0876 157.507 61.3105ZM200.66 108.474C204.787 118.6 204.516 125.819 204.532 128.149C204.548 130.48 202.349 131.549 200.66 132.048C198.97 132.546 143.825 132.909 141.226 132.753C138.626 132.596 135.743 132.639 139.252 129.108C142.761 125.576 177.53 91.1799 180.71 88.3925C183.891 85.6041 186.505 86.4668 187.987 87.9597C189.469 89.4515 196.532 98.3473 200.66 108.474ZM199.837 171.382C195.643 181.479 189.625 187.348 188 189.008C186.375 190.667 184.068 189.857 182.523 189.008C180.978 188.157 142.25 149.108 140.521 147.147C138.792 145.186 136.961 142.261 141.922 142.261C146.883 142.261 195.63 142.689 199.837 142.981C204.045 143.274 205.287 145.745 205.287 147.855C205.287 149.965 204.032 161.284 199.837 171.382ZM152.985 214.822C142.926 218.977 135.755 218.704 133.44 218.72C131.125 218.736 130.063 216.523 129.567 214.822C129.072 213.121 128.712 157.609 128.867 154.993C129.023 152.375 128.98 149.473 132.488 153.006C135.996 156.538 170.165 191.538 172.934 194.74C175.704 197.942 174.847 200.573 173.364 202.065C171.882 203.557 163.044 210.667 152.984 214.822H152.985ZM91.493 213.994C81.463 209.772 75.633 203.714 73.984 202.078C72.336 200.442 73.14 198.12 73.984 196.565C74.829 195.009 113.62 156.024 115.568 154.283C117.516 152.543 120.422 150.699 120.422 155.693C120.422 160.687 119.996 209.759 119.706 213.994C119.415 218.23 116.961 219.48 114.865 219.48C112.769 219.48 101.524 218.217 91.493 213.994ZM48.34 166.83C44.213 156.704 44.484 149.485 44.468 147.155C44.452 144.825 46.651 143.755 48.34 143.256C50.03 142.758 105.175 142.396 107.774 142.552C110.374 142.709 113.257 142.665 109.748 146.197C106.239 149.728 71.47 184.124 68.29 186.912C65.109 189.7 62.495 188.838 61.013 187.345C59.531 185.853 52.468 176.956 48.34 166.829V166.83Z" fill="url(#paint0_linear_199_48)"/>
<path d="M1.01917 81.976L2.66693 78.3806L19.2573 78.578L6.93278 69.0722L8.58053 65.4767L25.6848 79.0633L24.3483 81.9796L1.01917 81.976ZM0.0671387 84.0534L1.74541 80.3914L17.0387 84.7478L22.2734 86.5073L20.2839 90.8485L0.0671387 84.0534ZM7.8543 67.0614L9.53867 63.386L29.7554 70.1811L27.7598 74.5356L22.5251 72.7762L7.8543 67.0614Z" fill="black"/>
<path d="M45.704 49.4685L38.0602 37.7464L41.7587 34.499L50.9559 50.3853C51.1605 50.7322 51.3508 51.1301 51.527 51.579C51.7104 52.0214 51.8165 52.5061 51.8453 53.033C51.8814 53.5535 51.7768 54.0948 51.5315 54.6568C51.2862 55.2189 50.837 55.7867 50.1839 56.3601C49.8537 56.6501 49.5781 56.8599 49.3571 56.9897C49.151 57.1193 48.8638 57.2817 48.4953 57.4768L45.9322 55.3548C46.0276 55.271 46.112 55.1969 46.1854 55.1325C46.2736 55.0679 46.3581 55.0001 46.4388 54.9292C46.8498 54.5684 47.135 54.2409 47.2946 53.9467C47.4615 53.6461 47.5247 53.3594 47.4843 53.0867C47.4587 52.8139 47.355 52.5261 47.1732 52.2234L45.704 49.4685ZM33.8993 41.3997L45.0216 46.4656L49.1611 49.2067L46.9622 51.3493L30.2008 44.6471L33.8993 41.3997Z" fill="black"/>
<path d="M128.501 16.375C128.501 16.0137 128.447 15.6914 128.34 15.4082C128.232 15.1152 128.037 14.8467 127.754 14.6025C127.471 14.3584 127.07 14.1143 126.553 13.8701C126.035 13.6162 125.356 13.3574 124.517 13.0938C123.56 12.7812 122.646 12.4297 121.777 12.0391C120.918 11.6387 120.151 11.1748 119.478 10.6475C118.804 10.1201 118.271 9.50488 117.881 8.80176C117.5 8.09863 117.31 7.27832 117.31 6.34082C117.31 5.43262 117.51 4.6123 117.91 3.87988C118.311 3.14746 118.872 2.52246 119.595 2.00488C120.317 1.47754 121.167 1.07715 122.144 0.803711C123.12 0.520508 124.194 0.378906 125.366 0.378906C126.929 0.378906 128.301 0.657227 129.482 1.21387C130.674 1.76074 131.602 2.53223 132.266 3.52832C132.93 4.51465 133.262 5.66211 133.262 6.9707H128.516C128.516 6.39453 128.394 5.88672 128.149 5.44727C127.915 4.99805 127.554 4.64648 127.065 4.39258C126.587 4.13867 125.986 4.01172 125.264 4.01172C124.561 4.01172 123.97 4.11914 123.491 4.33398C123.022 4.53906 122.666 4.82227 122.422 5.18359C122.187 5.54492 122.07 5.94043 122.07 6.37012C122.07 6.71191 122.158 7.02441 122.334 7.30762C122.52 7.58105 122.783 7.83984 123.125 8.08398C123.477 8.31836 123.906 8.54297 124.414 8.75781C124.922 8.97266 125.503 9.17773 126.157 9.37305C127.3 9.73438 128.311 10.1348 129.189 10.5742C130.078 11.0137 130.825 11.5117 131.431 12.0684C132.036 12.625 132.49 13.2549 132.793 13.958C133.105 14.6611 133.262 15.457 133.262 16.3457C133.262 17.293 133.076 18.1328 132.705 18.8652C132.344 19.5977 131.816 20.2227 131.123 20.7402C130.439 21.248 129.619 21.6338 128.662 21.8975C127.705 22.1611 126.636 22.293 125.454 22.293C124.38 22.293 123.32 22.1562 122.275 21.8828C121.23 21.5996 120.283 21.1699 119.434 20.5938C118.594 20.0176 117.92 19.2852 117.412 18.3965C116.914 17.498 116.665 16.4336 116.665 15.2031H121.44C121.44 15.8477 121.533 16.3945 121.719 16.8438C121.904 17.2832 122.168 17.6396 122.51 17.9131C122.861 18.1865 123.286 18.3818 123.784 18.499C124.282 18.6162 124.839 18.6748 125.454 18.6748C126.167 18.6748 126.743 18.5771 127.183 18.3818C127.632 18.1768 127.964 17.8984 128.179 17.5469C128.394 17.1953 128.501 16.8047 128.501 16.375Z" fill="black"/>
<path d="M174.615 8.29602L164.679 28.4831L160.38 26.9312L170.317 6.74416L174.615 8.29602ZM167.86 20.6696L166.772 20.3079C167.264 19.309 167.843 18.4399 168.51 17.7003C169.19 16.9554 169.927 16.3597 170.72 15.9134C171.513 15.4671 172.334 15.1957 173.181 15.0994C174.039 15.0064 174.88 15.1091 175.707 15.4075C176.442 15.6728 177.063 16.0156 177.57 16.436C178.077 16.8564 178.443 17.3652 178.668 17.9624C178.894 18.5597 178.951 19.2563 178.841 20.0522C178.73 20.8481 178.425 21.7542 177.924 22.7706L173.538 31.6813L169.212 30.1195L173.611 21.1825C173.909 20.5779 174.05 20.0717 174.034 19.6636C174.028 19.2589 173.889 18.9251 173.618 18.6622C173.357 18.4027 172.987 18.1867 172.509 18.0143C171.949 17.812 171.438 17.7409 170.975 17.801C170.517 17.8524 170.101 18.0064 169.726 18.2631C169.351 18.5198 169.007 18.8549 168.695 19.2686C168.393 19.6856 168.114 20.1526 167.86 20.6696Z" fill="black"/>
<path d="M202.497 40.1203L202.733 39.9231C203.625 39.1781 204.57 38.6021 205.569 38.1951C206.576 37.7819 207.598 37.5563 208.637 37.5182C209.676 37.4802 210.702 37.6421 211.713 38.004C212.733 38.3596 213.697 38.9369 214.607 39.7359C215.532 40.5477 216.189 41.3944 216.579 42.2759C216.983 43.1575 217.15 44.0426 217.08 44.9312C217.01 45.8197 216.721 46.6897 216.213 47.541C215.713 48.3862 215.017 49.1812 214.126 49.9262L213.889 50.1234C213.005 50.8622 212.06 51.4382 211.053 51.8514C210.054 52.2584 209.031 52.484 207.985 52.5283C206.946 52.5663 205.921 52.4044 204.909 52.0425C203.897 51.6807 202.933 51.097 202.015 50.2916C201.105 49.4927 200.448 48.6523 200.044 47.7707C199.639 46.889 199.472 46.0039 199.542 45.1154C199.62 44.2206 199.909 43.3506 200.409 42.5055C200.916 41.6541 201.612 40.859 202.497 40.1203ZM206.178 42.9482L205.942 43.1454C205.462 43.5461 205.049 43.9539 204.703 44.3689C204.364 44.7904 204.125 45.2099 203.986 45.6275C203.848 46.0451 203.832 46.4546 203.938 46.8562C204.059 47.2579 204.329 47.6424 204.747 48.0097C205.165 48.3769 205.604 48.6142 206.062 48.7215C206.529 48.8225 207.007 48.8189 207.498 48.7106C207.989 48.6023 208.481 48.4051 208.974 48.1189C209.474 47.8392 209.964 47.499 210.444 47.0983L210.68 46.9011C211.152 46.5067 211.554 46.1019 211.886 45.6867C212.232 45.2717 212.478 44.8523 212.624 44.4284C212.771 44.0046 212.787 43.5887 212.673 43.1807C212.567 42.7791 212.301 42.3915 211.875 42.0178C211.464 41.657 211.026 41.4261 210.56 41.325C210.094 41.224 209.611 41.2308 209.113 41.3453C208.615 41.4599 208.115 41.657 207.615 41.9367C207.129 42.2166 206.65 42.5538 206.178 42.9482Z" fill="black"/>
<path d="M236.525 75.2291L218.614 81.2494L216.71 77.0946L237.509 70.1036L239.285 73.9787L236.525 75.2291ZM236.188 85.7159L235.896 85.8139C234.804 86.181 233.735 86.4018 232.69 86.4764C231.655 86.5478 230.68 86.4605 229.766 86.2144C228.856 85.9773 228.048 85.5778 227.342 85.016C226.645 84.4511 226.087 83.7114 225.668 82.797C225.27 81.927 225.114 81.1086 225.2 80.3419C225.3 79.5809 225.593 78.8677 226.078 78.2025C226.577 77.543 227.21 76.9308 227.977 76.3658C228.757 75.8065 229.623 75.2847 230.576 74.8005L231.146 74.6091C232.294 74.3871 233.392 74.2538 234.439 74.209C235.487 74.1642 236.447 74.2413 237.318 74.4403C238.198 74.6362 238.972 74.9855 239.641 75.4883C240.309 75.991 240.843 76.6774 241.241 77.5474C241.656 78.453 241.844 79.3171 241.804 80.1397C241.765 80.9624 241.515 81.7226 241.055 82.4202C240.608 83.1236 239.972 83.7523 239.147 84.3063C238.322 84.8602 237.335 85.3301 236.188 85.7159ZM233.986 81.6458L234.277 81.5478C234.888 81.3424 235.428 81.1098 235.897 80.8499C236.374 80.5869 236.758 80.294 237.048 79.9711C237.347 79.6451 237.53 79.2865 237.597 78.8954C237.663 78.5042 237.591 78.0778 237.379 77.6162C237.151 77.119 236.875 76.7253 236.549 76.4351C236.224 76.1449 235.851 75.9477 235.429 75.8435C235.017 75.7362 234.557 75.7115 234.049 75.7694C233.545 75.8362 232.995 75.9647 232.399 76.155L230.872 76.6683C230.181 76.9106 229.604 77.2122 229.139 77.5733C228.688 77.9402 228.399 78.3703 228.272 78.8636C228.159 79.3627 228.255 79.9451 228.56 80.611C228.776 81.0815 229.061 81.4363 229.417 81.6755C229.785 81.9204 230.211 82.0692 230.695 82.1218C231.182 82.1834 231.704 82.167 232.259 82.0726C232.818 81.9872 233.393 81.8449 233.986 81.6458Z" fill="black"/>
<defs>
<linearGradient id="paint0_linear_199_48" x1="-8.48033" y1="118.342" x2="183.03" y2="118.342" gradientUnits="userSpaceOnUse">
<stop stop-color="#25E53B"/>
<stop offset="1" stop-color="#C86620"/>
</linearGradient>
</defs>
</svg>
